# xmcd CD database file
#
# Track frame offsets:
#	150
#	17722
#	26331
#	32703
#	41063
#	47956
#	52450
#	55651
#	62444
#	68878
#	93966
#	111348
#	132649
#	144870
#	150345
#	156004
#	162183
#
# Disc length: 2552 seconds
#
# Revision: 2
# Processed by: cddbd v1.5.2PL0 Copyright (c) Steve Scherf et al.
# Submitted via: CDex 1.70beta3
#
DISCID=e309f611
DTITLE=くるり - 奇跡 -オリジナルサウンドトラック-
DYEAR=1900
DGENRE=blues
TTITLE0=鹿児島おはら節
TTITLE1=プールとタコ焼きと市バス
TTITLE2=龍之介と父親
TTITLE3=学校へ行こう
TTITLE4=周吉と山本
TTITLE5=中央駅にて
TTITLE6=花火だ花火だ
TTITLE7=鹿児島にて
TTITLE8=ぞわぞわ
TTITLE9=それぞれの日々
TTITLE10=軍資金のテーマ
TTITLE11=最終列車
TTITLE12=コスモス
TTITLE13=走れ
TTITLE14=願い
TTITLE15=帰路
TTITLE16=奇跡
EXTD=
EXTT0=
EXTT1=
EXTT2=
EXTT3=
EXTT4=
EXTT5=
EXTT6=
EXTT7=
EXTT8=
EXTT9=
EXTT10=
EXTT11=
EXTT12=
EXTT13=
EXTT14=
EXTT15=
EXTT16=
PLAYORDER=
